<svg xmlns="http://www.w3.org/2000/svg" width="18" height="4" viewBox="0 0 18 4" fill="none">
<path d="M2.50033 0.166748C1.48741 0.166748 0.666992 0.987165 0.666992 2.00008C0.666992 3.013 1.48741 3.83342 2.50033 3.83342C3.51324 3.83342 4.33366 3.013 4.33366 2.00008C4.33366 0.987165 3.51324 0.166748 2.50033 0.166748ZM15.5003 0.166748C14.4874 0.166748 13.667 0.987165 13.667 2.00008C13.667 3.013 14.4874 3.83342 15.5003 3.83342C16.5132 3.83342 17.3337 3.013 17.3337 2.00008C17.3337 0.987165 16.5132 0.166748 15.5003 0.166748ZM9.00032 0.166748C7.98741 0.166748 7.16699 0.987165 7.16699 2.00008C7.16699 3.013 7.98741 3.83342 9.00032 3.83342C10.0132 3.83342 10.8337 3.013 10.8337 2.00008C10.8337 0.987165 10.0132 0.166748 9.00032 0.166748Z" fill="#929EAE"/>
</svg>