<svg xmlns="http://www.w3.org/2000/svg" width="20" height="20" viewBox="0 0 20 20" fill="none">
  <path d="M14.167 2.02478H5.83366C3.33366 2.02478 1.66699 3.69145 1.66699 6.19145V11.1915C1.66699 13.6915 3.33366 15.3581 5.83366 15.3581V17.1331C5.83366 17.7998 6.57533 18.1998 7.12533 17.8248L10.8337 15.3581H14.167C16.667 15.3581 18.3337 13.6915 18.3337 11.1915V6.19145C18.3337 3.69145 16.667 2.02478 14.167 2.02478ZM10.0003 12.1665C9.65033 12.1665 9.37533 11.8831 9.37533 11.5415C9.37533 11.1998 9.65033 10.9165 10.0003 10.9165C10.3503 10.9165 10.6253 11.1998 10.6253 11.5415C10.6253 11.8831 10.3503 12.1665 10.0003 12.1665ZM11.0503 8.70812C10.7253 8.92479 10.6253 9.06646 10.6253 9.29979V9.47479C10.6253 9.81646 10.342 10.0998 10.0003 10.0998C9.65866 10.0998 9.37533 9.81646 9.37533 9.47479V9.29979C9.37533 8.33311 10.0837 7.85811 10.3503 7.67478C10.6587 7.46645 10.7587 7.32478 10.7587 7.10811C10.7587 6.69145 10.417 6.34978 10.0003 6.34978C9.58366 6.34978 9.24199 6.69145 9.24199 7.10811C9.24199 7.44978 8.95866 7.73311 8.61699 7.73311C8.27533 7.73311 7.99199 7.44978 7.99199 7.10811C7.99199 5.99978 8.89199 5.09978 10.0003 5.09978C11.1087 5.09978 12.0087 5.99978 12.0087 7.10811C12.0087 8.05811 11.3087 8.53312 11.0503 8.70812Z" fill="#929EAE"/>
</svg>