<svg xmlns="http://www.w3.org/2000/svg" width="20" height="20" viewBox="0 0 20 20" fill="none">
  <path d="M13.1503 1.66663H6.85033C3.70033 1.66663 2.91699 2.50829 2.91699 5.86663V15.25C2.91699 17.4666 4.13366 17.9916 5.60866 16.4083L5.61699 16.4C6.30033 15.675 7.34199 15.7333 7.93366 16.525L8.77533 17.65C9.45033 18.5416 10.542 18.5416 11.217 17.65L12.0587 16.525C12.6587 15.725 13.7003 15.6666 14.3837 16.4C15.867 17.9833 17.0753 17.4583 17.0753 15.2416V5.86663C17.0837 2.50829 16.3003 1.66663 13.1503 1.66663ZM12.292 8.95829H7.70866C7.36699 8.95829 7.08366 8.67496 7.08366 8.33329C7.08366 7.99163 7.36699 7.70829 7.70866 7.70829H12.292C12.6337 7.70829 12.917 7.99163 12.917 8.33329C12.917 8.67496 12.6337 8.95829 12.292 8.95829Z" fill="#929EAE"/>
</svg>